<?xml version="1.0" encoding="UTF-8"?>
<svg id="_レイヤー_1" data-name="レイヤー 1" xmlns="http://www.w3.org/2000/svg" xmlns:xlink="http://www.w3.org/1999/xlink" viewBox="0 0 1024 1024">
  <defs>
    <style>
      .cls-1 {
        fill: url(#_名称未設定グラデーション_1503);
      }

      .cls-2 {
        fill: url(#_名称未設定グラデーション_1153);
      }

      .cls-3 {
        fill: url(#_名称未設定グラデーション_1119);
      }

      .cls-4 {
        fill: url(#_名称未設定グラデーション_1085);
      }

      .cls-5 {
        fill: url(#_名称未設定グラデーション_536);
      }
    </style>
    <linearGradient id="_名称未設定グラデーション_536" data-name="名称未設定グラデーション 536" x1="0" y1="214.73" x2="1024" y2="214.73" gradientUnits="userSpaceOnUse">
      <stop offset="0" stop-color="#00b3ff"/>
      <stop offset="1" stop-color="#44dd4c"/>
    </linearGradient>
    <linearGradient id="_名称未設定グラデーション_1153" data-name="名称未設定グラデーション 1153" x1="538.23" y1="814.51" x2="827.24" y2="814.51" gradientUnits="userSpaceOnUse">
      <stop offset="0" stop-color="#2ac6a2"/>
      <stop offset="1" stop-color="#44dd4c"/>
    </linearGradient>
    <linearGradient id="_名称未設定グラデーション_1119" data-name="名称未設定グラデーション 1119" x1="550.82" y1="679.01" x2="805.69" y2="679.01" gradientUnits="userSpaceOnUse">
      <stop offset="0" stop-color="#2ac6a2"/>
      <stop offset="1" stop-color="#44dd4c"/>
    </linearGradient>
    <linearGradient id="_名称未設定グラデーション_1085" data-name="名称未設定グラデーション 1085" x1="552.68" y1="533.09" x2="813.22" y2="533.09" gradientUnits="userSpaceOnUse">
      <stop offset="0" stop-color="#2ac6a2"/>
      <stop offset="1" stop-color="#44dd4c"/>
    </linearGradient>
    <linearGradient id="_名称未設定グラデーション_1503" data-name="名称未設定グラデーション 1503" x1="164.3" y1="675.5" x2="442.33" y2="675.5" gradientUnits="userSpaceOnUse">
      <stop offset="0" stop-color="#2abfff"/>
      <stop offset="1" stop-color="#44cba4"/>
    </linearGradient>
  </defs>
  <path class="cls-5" d="M1024,337.17c-264.11,169.99-328.1-161.17-512-118.32C296.05,269.17,303.34,531.44,0,386.07V0h1024v337.17Z"/>
  <path class="cls-2" d="M526.97,849.63c43.2,20.43,90.81,31.75,138.75,26.94,42.94-4.31,83.84-18.88,120.56-41.5,20.16-12.42,39.05-27.07,56.59-42.97,9.33-8.46,9.23-25.47,0-33.94-9.97-9.15-23.99-9.02-33.94,0-7,6.35-14.33,12.22-21.61,18.23,5.52-4.56-.34.23-1.69,1.23-1.8,1.34-3.62,2.66-5.45,3.97-3.87,2.76-7.8,5.43-11.78,8.02-7.77,5.05-15.77,9.76-23.97,14.08-4,2.1-8.04,4.11-12.13,6.02-2.28,1.06-4.57,2.07-6.87,3.09-1.32.59-4.16,1.43,1.57-.66-1.41.51-2.8,1.14-4.2,1.69-8.92,3.51-18.04,6.53-27.3,8.99-4.17,1.11-8.37,2.1-12.6,2.98s-10.19.86-14.35,2.51c4.83-1.91,3.52-.46,1.02-.16-1.28.15-2.56.29-3.85.42-2.06.21-4.13.38-6.2.53-5.22.38-10.46.57-15.7.57-4.79,0-9.58-.14-14.36-.45-2.42-.15-4.85-.35-7.26-.58-1.35-.13-2.71-.27-4.06-.43l-1.63-.19c-2.67-.34-2.17-.27,1.48.2-1.86.66-6.18-.97-8.21-1.34-2.77-.5-5.53-1.05-8.28-1.66-5.91-1.3-11.77-2.82-17.57-4.55s-11.96-3.82-17.82-6.06c-1.14-.44-2.28-.88-3.42-1.33-2.21-.88-4.93-1.87-1.13-.41-3.52-1.35-6.96-3.08-10.36-4.69-11.33-5.36-26.42-3.53-32.84,8.61-5.64,10.67-3.51,27.11,8.61,32.84h0Z"/>
  <path class="cls-3" d="M544.79,730.09c46.8,8.17,93.97,8.31,140.68-.62,34.67-6.62,69.54-18.6,99.65-37.27,13.08-8.11,26.04-17.68,36.01-29.51,8.08-9.59,10.11-24.66,0-33.94-8.91-8.18-25.3-10.25-33.94,0-3.38,4.01-7.1,7.71-11.06,11.15-1.21,1.05-2.46,2.07-3.7,3.09-4.12,3.39,3.41-2.5.9-.68-2.71,1.97-5.42,3.92-8.22,5.76-5.8,3.81-11.81,7.29-17.97,10.5-3.13,1.63-6.31,3.19-9.51,4.68-1.75.82-3.53,1.59-5.29,2.39-1.56.71-4.91,1.83,1.5-.61-1.04.39-2.05.85-3.08,1.27-16.31,6.59-33.23,11.64-50.41,15.34-4.33.93-8.69,1.78-13.05,2.54-2.36.41-4.72.8-7.09,1.16-1.06.16-2.13.31-3.19.47-5.67.84,5.67-.65-.07,0-10,1.15-20.01,2.04-30.07,2.41-11.73.43-23.49.29-35.21-.44-6.39-.4-12.76-.97-19.12-1.7-1.23-.14-2.46-.31-3.69-.45-1.82-.23-1.23-.15,1.75.24-.93-.13-1.86-.26-2.79-.4-3.43-.51-6.85-1.07-10.27-1.67-6.51-1.14-12.6-1.03-18.49,2.42-4.98,2.91-9.73,8.62-11.03,14.34-2.66,11.67,3.54,27.21,16.76,29.52h0Z"/>
  <path class="cls-4" d="M552.86,591.17c74.14,6.71,148.51-9.49,215.45-41.26,19.37-9.19,38.01-19.82,55.93-31.58,10.48-6.88,15.89-21.55,8.61-32.84-6.74-10.46-21.61-15.98-32.84-8.61-15.43,10.13-31.39,19.43-47.91,27.68-3.98,1.99-8,3.92-12.04,5.79-1.88.87-3.76,1.72-5.65,2.56-.81.36-1.62.72-2.43,1.07-.2.09-5.45,2.28-2,.88,3.13-1.27-.43.17-1.19.49-.81.33-1.63.67-2.44,1-2.17.88-4.34,1.73-6.52,2.57-4.34,1.67-8.71,3.27-13.11,4.8-16.26,5.64-32.87,10.28-49.72,13.8-4.16.87-8.34,1.67-12.53,2.4-1.95.34-3.9.67-5.86.98-1.12.18-2.23.35-3.35.52-.82.12-5.76.77-1.84.29,3.45-.42.51-.07-.16.02-1.12.14-2.23.28-3.35.41-1.95.23-3.91.45-5.87.65-4.47.46-8.94.83-13.42,1.13-19.25,1.27-38.56,1-57.77-.74-12.54-1.14-24.54,11.85-24,24,.63,13.97,10.57,22.78,24,24h0Z"/>
  <path class="cls-1" d="M158.7,631.15c42.91,17.86,89.76,28.06,136.37,26.79,20.88-.57,41.98-3.35,62.2-8.62,18.59-4.84,38.17-11.58,54.36-22.06,36.86-23.86,61.19-68.89,49.82-113.03-10.61-41.2-53.12-70.63-95-70.07-45.66.61-81.01,35.41-94.23,77.18s-.75,87.25,18.52,125.94c9.24,18.55,20.08,36.23,30.44,54.16,5.04,8.72,9.99,17.5,14.58,26.46,2.22,4.33,4.36,8.7,6.38,13.12.76,1.67,1.4,3.41,2.23,5.04-3.54-6.95.3.85.98,2.62,3.18,8.24,5.91,16.65,8.09,25.2,1.08,4.22,2.02,8.48,2.79,12.77.32,1.78.59,3.57.89,5.36.78,4.81-.57-5.02-.24-1.71.13,1.33.3,2.65.42,3.98.75,8.25.36,16.24-.13,24.47-.19,3.21,1.11-6.6.27-2.07-.15.81-.27,1.62-.42,2.43-.34,1.8-.73,3.59-1.19,5.36s-.95,3.49-1.52,5.21c-.31.95-.68,1.88-1,2.82-1.63,4.82,1.77-3.49.6-1.33-1.71,3.15-3.17,6.34-5.16,9.35-.54.81-1.23,1.6-1.7,2.45,2.73-4.92,2.81-3.47,1.54-2.02-1.47,1.69-2.92,3.36-4.52,4.93-1.34,1.31-2.76,2.51-4.16,3.75-2.82,2.48,1.57-1.29,1.84-1.4-.91.38-1.83,1.3-2.67,1.86-1.71,1.13-3.46,2.19-5.25,3.19-1.06.59-2.13,1.15-3.22,1.69-.79.39-5.57,2.49-1.59.84s-2.34.79-3.42,1.13c-1.83.58-3.69,1.08-5.56,1.5-2.62.59-7.9.39-.29.28-2.17.03-4.34.38-6.52.39-1.74.01-3.48-.05-5.21-.18-6.12-.48,5.31,1.17.17.05-3.68-.8-7.28-1.66-10.83-2.94-.87-.32-1.73-.73-2.61-1,.05.02,5.9,2.7,2.66,1.08-1.5-.75-3.01-1.45-4.49-2.25-3.11-1.68-6.11-3.56-9-5.6-.91-.64-1.77-1.37-2.7-1.98.04.02,4.98,4.03,2.23,1.69-1.27-1.08-2.56-2.13-3.8-3.23-2.6-2.31-5.08-4.74-7.46-7.27s-4.49-5.05-6.65-7.65c-3.2-3.86,3.66,4.94.29.36-.99-1.34-1.95-2.7-2.89-4.08-3.2-4.71-6.12-9.63-8.59-14.76-.35-.72-.99-3.02-1.6-3.5-.18-.14,2.51,6.37,1.6,3.74-.18-.53-.41-1.06-.6-1.59-.64-1.76-1.18-3.55-1.6-5.38-2.77-12.26-17.59-20.62-29.52-16.76-12.85,4.16-19.73,16.39-16.76,29.52,2.46,10.9,8.19,21.61,14.27,30.92,7.99,12.26,17.59,23.97,28.94,33.27,13.34,10.93,28.6,20.31,45.79,23.59,20.69,3.94,40.45.79,59.34-8.42,35.41-17.26,52.3-54.53,51.64-92.61s-15.05-75.57-33.18-109.07c-9.76-18.04-20.61-35.46-30.6-53.38-4.72-8.47-9.27-17.05-13.37-25.84-.68-1.45-3.41-5.69-3.26-7.26-.03.29,2.21,5.44.58,1.35-.39-.98-.79-1.95-1.17-2.93-1.9-4.86-3.62-9.8-5.11-14.8-1.33-4.47-2.47-8.99-3.4-13.56-.41-2.03-.73-4.07-1.09-6.11-.93-5.25.44,4.51.13.99-.14-1.55-.33-3.1-.44-4.65-.36-4.72-.46-9.45-.27-14.17.09-2.18.27-4.34.45-6.51.33-4-.26,1.94-.35,2.26.36-1.31.43-2.77.68-4.11.77-4.13,1.79-8.21,3.06-12.22.64-2.01,1.34-4,2.1-5.97.92-2.4,2.44-2.75-.54,1.18.79-1.04,1.21-2.66,1.79-3.83,1.76-3.57,3.74-7.03,5.93-10.35,1.07-1.63,5.52-6.82.74-1.38,1.53-1.75,2.95-3.59,4.53-5.29s3.23-3.33,4.94-4.88c.69-.62,1.4-1.21,2.09-1.83,2.92-2.58-1.21.98-1.6,1.16,4.1-1.84,7.75-5.27,11.88-7.28.84-.41,1.73-.75,2.56-1.18-5.45,2.8-3.29,1.31-1.78.84,2.26-.71,4.46-1.51,6.76-2.08,1.73-.43,3.75-.47,5.39-1.1-4.92,1.87-4.28.51-1.63.29,1.36-.11,2.72-.19,4.08-.22,2.04-.05,4.08,0,6.12.13.73.05,1.93.32,2.71.23-5.11.56-4.35-.66-1.67-.2,4.24.74,8.42,1.84,12.48,3.29.69.25,1.78.83,2.55.96-4.95-.8-3.69-1.62-1.37-.53,1.85.87,3.66,1.8,5.43,2.8s3.5,2.08,5.19,3.21c.84.56,1.84,1.61,2.77,1.95l-2.71-2.11c.7.56,1.4,1.13,2.08,1.71,2.9,2.47,5.56,5.17,8.09,8.01,1.35,1.52,2.23,3.95-.82-1.24.43.73,1.08,1.45,1.56,2.14,1.26,1.8,2.44,3.67,3.51,5.59.54.96,1,1.95,1.53,2.91,1.06,1.91.94,4.25-.53-1.54.42,1.67,1.25,3.29,1.76,4.95.6,1.95,1.09,3.94,1.49,5.94.44,2.21-.17,4.5-.08-1.59-.02,1.35.29,2.77.37,4.12.11,1.83.13,3.67.09,5.5-.03,1.15-.09,2.29-.18,3.43-.16,2.13-1.29,4.53.33-1.59-1.13,4.26-1.64,8.57-3.04,12.79-.29.88-.6,1.76-.92,2.64-.85,2.3-2.42,3.03.58-1.18-1.05,1.47-1.6,3.48-2.44,5.09-2.22,4.26-5.1,8-7.58,12.07,3.57-5.85.17-.31-1.25,1.3s-2.94,3.21-4.49,4.73c-1.38,1.36-2.81,2.68-4.28,3.95-.92.8-1.87,1.55-2.8,2.34-1.74,1.47,4.6-3.35.18-.24-3.6,2.54-7.38,4.82-11.3,6.81-1.88.95-3.79,1.84-5.7,2.7-.84.38-1.68.74-2.51,1.12-4.4,1.98,4.82-1.91.63-.27-16.85,6.56-33.99,11.03-51.81,13.97-5.2.86,4.59-.54,1.09-.12-1.27.15-2.54.32-3.82.46-2.05.23-4.11.44-6.17.62-5.24.46-10.5.76-15.76.9-10.11.27-20.23-.03-30.3-.85-2.53-.21-5.05-.45-7.58-.72-1.13-.12-2.26-.27-3.39-.39-5.71-.6,4.1.63.41.08-5.49-.82-10.96-1.7-16.41-2.77-11.36-2.23-22.59-5.09-33.64-8.51s-21.99-7.45-32.7-11.91c-5.33-2.22-13.76-.35-18.49,2.42-4.98,2.91-9.73,8.62-11.03,14.34-1.4,6.14-1.1,13.04,2.42,18.49s8.23,8.49,14.34,11.03h0Z"/>
</svg>